# Blender v2.78 (sub 0) OBJ File: 'rhombododecahedron.blend'
# www.blender.org
o Cube
v -0.707107 -0.707107 0.000005
v 0.707107 0.707107 -0.000005
v -0.000007 0.000000 -0.999990
v -0.707100 0.707100 0.000005
v 0.000007 -0.000000 0.999990
v 0.707100 -0.707100 -0.000005
v 0.688427 -0.000039 0.486812
v 0.688420 -0.000039 -0.486799
v -0.000027 0.688408 -0.486795
v -0.000214 0.688602 0.486543
v -0.688405 0.000023 0.486821
v -0.688411 0.000023 -0.486790
v 0.000035 -0.688423 -0.486795
v 0.000042 -0.688423 0.486816
vt 1.0000 0.0000
vt 0.0000 1.0000
vt 0.0000 0.0000
vt 1.0000 0.0000
vt 0.0000 1.0000
vt 1.0000 0.0000
vt 0.0000 0.0000
vt 0.0000 1.0000
vt 0.0000 0.0000
vt 0.0000 1.0000
vt 0.0000 0.0000
vt 1.0000 0.0000
vt 0.0000 0.0000
vt 0.0000 1.0000
vt 0.0000 0.0000
vt 1.0000 0.0000
vt 1.0000 1.0000
vt 1.0000 1.0000
vt 1.0000 1.0000
vt 1.0000 1.0000
vt 1.0000 1.0000
vt 1.0000 1.0000
vn -0.4866 0.4866 -0.7255
vn 0.0263 0.9997 -0.0002
vn 0.4866 0.4866 -0.7256
vn 0.5130 -0.5130 -0.6882
vn 0.9997 0.0264 -0.0000
vn 0.4864 0.4867 0.7256
vn 0.5130 -0.5130 0.6882
vn -0.0264 -0.9997 -0.0000
vn -0.4866 -0.4866 0.7255
vn -0.5130 0.5130 0.6882
vn -0.9997 -0.0264 0.0000
vn -0.4866 -0.4866 -0.7255
vn -0.5130 0.5130 -0.6882
vn -0.0263 0.9997 -0.0002
vn 0.5130 0.5130 -0.6882
vn 0.4866 -0.4866 -0.7255
vn 0.9997 -0.0264 -0.0000
vn 0.5130 0.5132 0.6881
vn 0.4867 -0.4867 0.7255
vn 0.0264 -0.9997 -0.0000
vn -0.5130 -0.5130 0.6882
vn -0.4866 0.4866 0.7255
vn -0.9997 0.0264 0.0000
vn -0.5130 -0.5130 -0.6882
s off
f 9/1/1 12/2/1 4/3/1
f 10/4/2 9/5/2 4/3/2
f 8/6/3 9/5/3 2/7/3
f 8/6/4 13/8/4 3/9/4
f 8/6/5 7/10/5 6/11/5
f 10/4/6 7/10/6 2/7/6
f 14/12/7 7/10/7 5/13/7
f 14/12/8 13/8/8 6/11/8
f 14/12/9 11/14/9 1/15/9
f 10/4/10 11/14/10 5/13/10
f 12/16/11 11/14/11 4/3/11
f 12/16/12 13/8/12 1/15/12
f 9/1/13 3/17/13 12/2/13
f 10/4/14 2/18/14 9/5/14
f 8/6/15 3/17/15 9/5/15
f 8/6/16 6/19/16 13/8/16
f 8/6/17 2/18/17 7/10/17
f 10/4/18 5/20/18 7/10/18
f 14/12/19 6/19/19 7/10/19
f 14/12/20 1/21/20 13/8/20
f 14/12/21 5/20/21 11/14/21
f 10/4/22 4/22/22 11/14/22
f 12/16/23 1/21/23 11/14/23
f 12/16/24 3/17/24 13/8/24
