# Blender v2.78 (sub 0) OBJ File: 'shield.blend'
# www.blender.org
mtllib shield.mtl
o Cube
v 0.667383 0.084599 -0.046110
v 0.750000 0.003945 0.050000
v -0.750000 0.003945 0.050000
v -0.667409 0.084569 -0.046110
v 0.667529 1.617723 -0.044877
v 0.750000 1.703945 0.050000
v -0.750000 1.703945 0.050000
v -0.668125 1.621392 -0.046253
v 0.749923 0.004031 0.000000
v -0.002131 -0.383735 -0.045667
v 0.000000 -0.523635 0.050000
v -0.750000 0.003945 -0.000000
v 0.000000 -0.523548 -0.000000
v 0.749923 0.004031 0.000000
v 0.749962 0.003988 0.025000
v -0.377521 -0.263985 0.055452
v 0.377521 -0.263985 0.055452
v -0.750000 0.003945 0.025000
v -0.375000 -0.259802 -0.000000
v 0.374962 -0.259759 -0.000000
v 0.000000 -0.523592 0.025000
v 0.376505 -0.262857 0.025593
v -0.376524 -0.262878 0.025593
v 0.749981 0.003966 0.037500
v 0.667456 0.851161 -0.046772
v 0.750000 0.853945 0.050000
v -0.668036 1.429289 -0.046235
v 0.708653 0.044315 -0.023055
v 0.749943 0.004010 0.012500
v -0.708704 0.044257 -0.023055
v -0.750000 0.853945 0.050000
v -0.667767 0.852981 -0.046182
v -0.750000 0.003945 0.012500
v -0.750000 0.003945 0.037500
v -0.688057 0.064413 -0.034582
v -0.750000 1.278945 0.050000
v -0.667946 1.237187 -0.046217
v -0.750000 0.003945 0.006250
v -0.750000 0.003945 0.031250
v -0.729352 0.024101 -0.011527
v -0.750000 0.428945 0.050000
v -0.667588 0.468775 -0.046146
v -0.750000 0.003945 0.018750
v -0.750000 0.003945 0.043750
v -0.750000 1.491445 0.050000
v -0.000298 1.619558 -0.046844
v -0.000000 1.703945 0.050000
v -0.677733 0.074491 -0.040346
v -0.750000 0.003945 0.003125
v -0.750000 0.003945 0.028125
v -0.719028 0.034179 -0.017291
v -0.750000 0.641445 0.050000
v -0.667677 0.660878 -0.046164
v -0.750000 0.003945 0.015625
v -0.750000 0.003945 0.040625
v -0.698380 0.054335 -0.028819
v -0.750000 1.066445 0.050000
v -0.667857 1.045084 -0.046199
v -0.750000 0.003945 0.009375
v -0.750000 0.003945 0.034375
v -0.739676 0.014023 -0.005764
v -0.750000 0.216445 0.050000
v -0.667498 0.276672 -0.046128
v -0.750000 0.003945 0.021875
v -0.750000 0.003945 0.046875
v -0.750000 1.703857 -0.000000
v 0.749924 1.703857 -0.000000
v 0.749924 1.703857 -0.000000
vn -0.0004 -0.0001 -1.0000
vn -0.2166 -0.3080 -0.9264
vn 0.2122 -0.3033 -0.9290
vn -0.5665 -0.8226 -0.0494
vn 0.5644 -0.8148 -0.1326
vn -0.5732 -0.8088 -0.1313
vn -0.0000 0.0000 1.0000
vn 0.5814 -0.8136 -0.0023
vn 0.4871 -0.0008 -0.8733
vn 1.0000 0.0000 -0.0015
vn 0.0000 0.4857 -0.8741
vn 0.0000 1.0000 -0.0017
vn -0.4872 -0.0003 -0.8733
vn -1.0000 -0.0000 0.0000
vn 0.0030 0.0025 -1.0000
vn -0.0002 -0.0009 -1.0000
vn 0.0006 -0.0001 -1.0000
vn -0.0009 -0.0001 -1.0000
vn -0.0002 -0.0007 -1.0000
vn -0.0004 -0.0005 -1.0000
vn -0.2163 -0.3082 -0.9264
vn -0.2153 -0.3062 -0.9273
vn -0.2155 -0.3069 -0.9270
vn 0.2157 -0.3092 -0.9262
vn 0.2167 -0.3081 -0.9263
vn 0.2114 -0.3006 -0.9300
vn -0.5753 -0.8180 -0.0014
vn -0.5693 -0.8221 -0.0014
vn -0.5645 -0.8149 -0.1315
vn 0.5665 -0.8226 -0.0504
vn 0.5754 -0.8179 -0.0014
vn 0.5693 -0.8221 -0.0014
vn -0.5753 -0.8180 0.0000
vn -0.5839 -0.8118 -0.0000
vn -0.5813 -0.8137 0.0000
vn -0.5819 -0.8117 -0.0495
vn 0.0146 -0.0000 0.9999
vn -0.0146 0.0000 0.9999
vn -0.0015 0.0054 1.0000
vn 0.0000 -0.0210 0.9998
vn 0.0000 0.0079 1.0000
vn 0.5754 -0.8179 -0.0023
vn 0.5732 -0.8086 -0.1324
vn 0.5816 -0.8119 -0.0505
vn 0.5839 -0.8118 -0.0023
vn 0.4766 0.0021 -0.8791
vn 0.4933 0.0000 -0.8698
vn 0.0039 0.4591 -0.8884
vn 0.0006 0.4896 -0.8719
vn -0.4921 -0.0003 -0.8705
vn -0.4897 0.0000 -0.8719
usemtl Material
s off
f 53//1 32//1 25//1
f 19//2 30//2 56//2
f 28//3 20//3 10//3
f 11//4 16//4 23//4
f 22//5 21//5 20//5
f 33//6 19//6 23//6
f 52//7 41//7 26//7
f 15//8 22//8 29//8
f 14//9 28//9 25//9
f 29//10 14//10 26//10
f 66//11 67//11 46//11
f 68//12 66//12 47//12
f 56//13 42//13 63//13
f 34//14 55//14 62//14
f 46//15 5//15 25//15
f 25//16 1//16 42//16
f 10//17 4//17 63//17
f 42//1 53//1 25//1
f 10//17 63//17 42//17
f 46//18 32//18 58//18
f 27//18 8//18 46//18
f 58//18 37//18 46//18
f 27//18 46//18 37//18
f 10//19 42//19 1//19
f 46//20 25//20 32//20
f 4//21 10//21 48//21
f 19//2 12//2 61//2
f 10//22 13//22 19//22
f 56//21 35//21 10//21
f 48//21 10//21 35//21
f 19//2 61//2 40//2
f 19//2 40//2 51//2
f 56//23 10//23 19//23
f 19//2 51//2 30//2
f 10//24 1//24 28//24
f 28//25 9//25 20//25
f 20//26 13//26 10//26
f 19//27 13//27 21//27
f 21//28 11//28 23//28
f 23//29 19//29 21//29
f 22//30 17//30 11//30
f 21//31 13//31 20//31
f 22//32 11//32 21//32
f 19//33 59//33 38//33
f 16//34 3//34 65//34
f 65//34 44//34 16//34
f 55//35 34//35 23//35
f 60//35 39//35 23//35
f 50//35 18//35 23//35
f 64//35 43//35 23//35
f 33//33 59//33 19//33
f 43//35 54//35 23//35
f 34//35 60//35 23//35
f 18//35 64//35 23//35
f 38//33 49//33 19//33
f 54//35 33//35 23//35
f 16//34 44//34 55//34
f 39//35 50//35 23//35
f 49//33 12//33 19//33
f 23//36 16//36 55//36
f 17//37 2//37 26//37
f 26//7 6//7 47//7
f 47//7 7//7 45//7
f 45//7 36//7 47//7
f 57//7 31//7 47//7
f 41//38 62//38 16//38
f 31//7 26//7 47//7
f 47//7 36//7 57//7
f 17//39 26//39 41//39
f 16//40 11//40 17//40
f 62//38 3//38 16//38
f 31//7 52//7 26//7
f 16//41 17//41 41//41
f 20//42 9//42 29//42
f 15//8 24//8 22//8
f 20//43 29//43 22//43
f 17//44 22//44 24//44
f 24//45 2//45 17//45
f 1//9 25//9 28//9
f 5//46 67//46 25//46
f 14//7 9//7 28//7
f 25//47 67//47 14//47
f 24//10 15//10 26//10
f 9//7 67//7 14//7
f 14//10 68//10 26//10
f 26//10 2//10 24//10
f 68//10 6//10 26//10
f 29//7 9//7 14//7
f 26//10 15//10 29//10
f 5//48 46//48 67//48
f 8//49 66//49 46//49
f 7//12 47//12 66//12
f 68//7 67//7 66//7
f 47//12 6//12 68//12
f 48//13 35//13 63//13
f 56//13 30//13 42//13
f 51//13 40//13 53//13
f 61//13 12//13 32//13
f 66//50 8//50 27//50
f 27//50 37//50 66//50
f 58//50 32//50 66//50
f 53//13 42//13 51//13
f 37//50 58//50 66//50
f 61//13 32//13 53//13
f 30//13 51//13 42//13
f 63//13 4//13 48//13
f 40//13 61//13 53//13
f 63//13 35//13 56//13
f 66//51 32//51 12//51
f 45//14 7//14 66//14
f 66//14 12//14 31//14
f 38//14 52//14 31//14
f 12//14 49//14 31//14
f 36//14 45//14 66//14
f 52//14 33//14 54//14
f 57//14 36//14 66//14
f 49//14 38//14 31//14
f 54//14 43//14 52//14
f 59//14 52//14 38//14
f 31//14 57//14 66//14
f 62//14 41//14 39//14
f 59//14 33//14 52//14
f 64//14 18//14 41//14
f 52//14 43//14 41//14
f 65//14 3//14 62//14
f 41//14 43//14 64//14
f 50//14 39//14 41//14
f 41//14 18//14 50//14
f 44//14 65//14 62//14
f 60//14 34//14 62//14
f 55//14 44//14 62//14
f 62//14 39//14 60//14
